# Blender 4.2.3 LTS
# www.blender.org
mtllib Chainlink_Fence_Post.mtl
o Chainlink_Fence_Post
v -4.493647 15.197808 -68.719994
v -4.472899 15.197808 -68.787590
v -4.540497 15.197808 -68.808342
v -4.561245 15.197808 -68.740746
v -4.493647 17.230522 -68.719994
v -4.472899 17.230522 -68.787590
v -4.540497 17.230522 -68.808342
v -4.561245 17.230522 -68.740746
v -5.422173 15.197808 -70.470940
v -5.401425 15.197808 -70.538536
v -5.469023 15.197808 -70.559288
v -5.489771 15.197808 -70.491684
v -5.422173 17.230522 -70.470940
v -5.401425 17.230522 -70.538536
v -5.469023 17.230522 -70.559288
v -5.489771 17.230522 -70.491684
v -6.350698 15.197808 -72.221886
v -6.329950 15.197808 -72.289482
v -6.397549 15.197808 -72.310226
v -6.418297 15.197808 -72.242630
v -6.350698 17.230522 -72.221886
v -6.329950 17.230522 -72.289482
v -6.397549 17.230522 -72.310226
v -6.418297 17.230522 -72.242630
v 11.457014 15.197808 -74.935287
v 11.477762 15.197808 -75.002884
v 11.410164 15.197808 -75.023636
v 11.389416 15.197808 -74.956032
v 11.457014 17.230522 -74.935287
v 11.477762 17.230522 -75.002884
v 11.410164 17.230522 -75.023636
v 11.389416 17.230522 -74.956032
v 9.310995 15.197808 -73.797249
v 9.331743 15.197808 -73.864853
v 9.264145 15.197808 -73.885597
v 9.243397 15.197808 -73.818001
v 9.310995 17.230522 -73.797249
v 9.331743 17.230522 -73.864853
v 9.264145 17.230522 -73.885597
v 9.243397 17.230522 -73.818001
v 7.164977 15.197808 -72.659218
v 7.185725 15.197808 -72.726814
v 7.118126 15.197808 -72.747566
v 7.097378 15.197808 -72.679970
v 7.164977 17.230522 -72.659218
v 7.185725 17.230522 -72.726814
v 7.118126 17.230522 -72.747566
v 7.097378 17.230522 -72.679970
v 5.018957 15.197808 -71.521187
v 5.039705 15.197808 -71.588783
v 4.972106 15.197808 -71.609528
v 4.951358 15.197808 -71.541931
v 5.018957 17.230522 -71.521187
v 5.039705 17.230522 -71.588783
v 4.972106 17.230522 -71.609528
v 4.951358 17.230522 -71.541931
v 2.872937 15.197808 -70.383148
v 2.893685 15.197808 -70.450752
v 2.826087 15.197808 -70.471497
v 2.805339 15.197808 -70.403900
v 2.872937 17.230522 -70.383148
v 2.893685 17.230522 -70.450752
v 2.826087 17.230522 -70.471497
v 2.805339 17.230522 -70.403900
v 0.726917 15.197808 -69.245117
v 0.747665 15.197808 -69.312714
v 0.680067 15.197808 -69.333466
v 0.659319 15.197808 -69.265869
v 0.726917 17.230522 -69.245117
v 0.747665 17.230522 -69.312714
v 0.680067 17.230522 -69.333466
v 0.659319 17.230522 -69.265869
v -1.419103 15.197808 -68.107086
v -1.398355 15.197808 -68.174683
v -1.465953 15.197808 -68.195435
v -1.486701 15.197808 -68.127831
v -1.419103 17.230522 -68.107086
v -1.398355 17.230522 -68.174683
v -1.465953 17.230522 -68.195435
v -1.486701 17.230522 -68.127831
v -7.326074 17.230522 -74.061172
v -7.258475 17.230522 -74.040428
v -7.279223 17.230522 -73.972824
v -7.346822 17.230522 -73.993576
v -7.326074 15.197808 -74.061172
v -7.258475 15.197808 -74.040428
v -7.279223 15.197808 -73.972824
v -7.346822 15.197808 -73.993576
v 13.556185 17.230522 -76.161667
v 13.623783 17.230522 -76.140915
v 13.603035 17.230522 -76.073318
v 13.535437 17.230522 -76.094070
v 13.556185 15.197808 -76.161667
v 13.623783 15.197808 -76.140915
v 13.603035 15.197808 -76.073318
v 13.535437 15.197808 -76.094070
v -3.565122 15.197808 -66.969055
v -3.544374 15.197808 -67.036652
v -3.611972 15.197808 -67.057396
v -3.632720 15.197808 -66.989799
v -3.565122 17.230522 -66.969055
v -3.544374 17.230522 -67.036652
v -3.611972 17.230522 -67.057396
v -3.632720 17.230522 -66.989799
v -18.941973 -0.509170 -16.419094
v -18.907515 -0.509170 -16.439400
v -18.907869 -0.509170 -16.479401
v -18.942686 -0.509170 -16.499092
v -18.977150 -0.509170 -16.478783
v -18.976789 -0.509170 -16.438789
v -18.941973 0.485134 -16.419094
v -18.907515 0.485134 -16.439400
v -18.907869 0.485134 -16.479401
v -18.942686 0.485134 -16.499092
v -18.977150 0.485134 -16.478783
v -18.976789 0.485134 -16.438789
v -17.264717 -0.509170 -17.407448
v -17.230253 -0.509170 -17.427757
v -17.230610 -0.509170 -17.467758
v -17.265425 -0.509170 -17.487446
v -17.299891 -0.509170 -17.467140
v -17.299534 -0.509170 -17.427143
v -17.264717 0.485134 -17.407448
v -17.230253 0.485134 -17.427757
v -17.230610 0.485134 -17.467758
v -17.265425 0.485134 -17.487446
v -17.299891 0.485134 -17.467140
v -17.299534 0.485134 -17.427143
v -15.587458 -0.509170 -18.395805
v -15.552994 -0.509170 -18.416115
v -15.553350 -0.509170 -18.456112
v -15.588165 -0.509170 -18.475800
v -15.622631 -0.509170 -18.455498
v -15.622274 -0.509170 -18.415497
v -15.587458 0.485134 -18.395805
v -15.552994 0.485134 -18.416115
v -15.553350 0.485134 -18.456112
v -15.588165 0.485134 -18.475800
v -15.622631 0.485134 -18.455498
v -15.622274 0.485134 -18.415497
v -13.910194 -0.509170 -19.384163
v -13.875734 -0.509170 -19.404472
v -13.876091 -0.509170 -19.444466
v -13.910906 -0.509170 -19.464157
v -13.945368 -0.509170 -19.443851
v -13.945015 -0.509170 -19.403854
v -13.910194 0.485134 -19.384163
v -13.875734 0.485134 -19.404472
v -13.876091 0.485134 -19.444466
v -13.910906 0.485134 -19.464157
v -13.945368 0.485134 -19.443851
v -13.945015 0.485134 -19.403854
v -12.232935 -0.509170 -20.372517
v -12.198475 -0.509170 -20.392822
v -12.198832 -0.509170 -20.432823
v -12.233646 -0.509170 -20.452515
v -12.268112 -0.509170 -20.432205
v -12.267757 -0.509170 -20.392212
v -12.232935 0.485134 -20.372517
v -12.198475 0.485134 -20.392822
v -12.198832 0.485134 -20.432823
v -12.233646 0.485134 -20.452515
v -12.268112 0.485134 -20.432205
v -12.267757 0.485134 -20.392212
v -10.555679 -0.509170 -21.360870
v -10.521217 -0.509170 -21.381180
v -10.521570 -0.509170 -21.421181
v -10.556389 -0.509170 -21.440868
v -10.590853 -0.509170 -21.420567
v -10.590496 -0.509170 -21.380566
v -10.555679 0.485134 -21.360870
v -10.521217 0.485134 -21.381180
v -10.521570 0.485134 -21.421181
v -10.556389 0.485134 -21.440868
v -10.590853 0.485134 -21.420567
v -10.590496 0.485134 -21.380566
v -8.878418 -0.509170 -22.349232
v -8.843958 -0.509170 -22.369537
v -8.844313 -0.509170 -22.409534
v -8.879129 -0.509170 -22.429222
v -8.913591 -0.509170 -22.408920
v -8.913237 -0.509170 -22.368923
v -8.878418 0.485134 -22.349232
v -8.843958 0.485134 -22.369537
v -8.844313 0.485134 -22.409534
v -8.879129 0.485134 -22.429222
v -8.913591 0.485134 -22.408920
v -8.913237 0.485134 -22.368923
v -7.201158 -0.509170 -23.337585
v -7.166696 -0.509170 -23.357891
v -7.167053 -0.509170 -23.397892
v -7.201868 -0.509170 -23.417580
v -7.236333 -0.509170 -23.397278
v -7.235977 -0.509170 -23.357277
v -7.201158 0.485134 -23.337585
v -7.166696 0.485134 -23.357891
v -7.167053 0.485134 -23.397892
v -7.201868 0.485134 -23.417580
v -7.236333 0.485134 -23.397278
v -7.235977 0.485134 -23.357277
v -5.523899 -0.509170 -24.325943
v -5.489439 -0.509170 -24.346249
v -5.489795 -0.509170 -24.386246
v -5.524612 -0.509170 -24.405937
v -5.559072 -0.509170 -24.385632
v -5.558719 -0.509170 -24.345634
v -5.523899 0.485134 -24.325943
v -5.489439 0.485134 -24.346249
v -5.489795 0.485134 -24.386246
v -5.524612 0.485134 -24.405937
v -5.559072 0.485134 -24.385632
v -5.558719 0.485134 -24.345634
v -3.846641 -0.509170 -25.314293
v -3.812177 -0.509170 -25.334606
v -3.812534 -0.509170 -25.374603
v -3.847353 -0.509170 -25.394295
v -3.881814 -0.509170 -25.373985
v -3.881458 -0.509170 -25.333992
v -3.846641 0.485134 -25.314293
v -3.812177 0.485134 -25.334606
v -3.812534 0.485134 -25.374603
v -3.847353 0.485134 -25.394295
v -3.881814 0.485134 -25.373985
v -3.881458 0.485134 -25.333992
v -20.619232 -0.509170 -15.430737
v -20.584774 -0.509170 -15.451042
v -20.585129 -0.509170 -15.491043
v -20.619946 -0.509170 -15.510735
v -20.654406 -0.509170 -15.490429
v -20.654055 -0.509170 -15.450432
v -20.619232 0.485134 -15.430737
v -20.584774 0.485134 -15.451042
v -20.585129 0.485134 -15.491043
v -20.619946 0.485134 -15.510735
v -20.654406 0.485134 -15.490429
v -20.654055 0.485134 -15.450432
v -2.204555 0.485134 -26.362343
v -2.170093 0.485134 -26.382652
v -2.135276 0.485134 -26.362961
v -2.134920 0.485134 -26.322960
v -2.169380 0.485134 -26.302650
v -2.204198 0.485134 -26.322346
v -2.204555 -0.509170 -26.362343
v -2.170093 -0.509170 -26.382652
v -2.135276 -0.509170 -26.362961
v -2.134920 -0.509170 -26.322960
v -2.169380 -0.509170 -26.302650
v -2.204198 -0.509170 -26.322346
v -169.344040 -169.344025 169.343994
v -169.344040 169.344025 169.343994
v -169.344025 -169.344025 -169.343994
v -169.344025 169.344025 -169.343994
v 169.344040 -169.344025 169.343994
v 169.344040 169.344025 169.343994
v 169.344025 -169.344025 -169.343994
v 169.344025 169.344025 -169.343994
vn -0.2934 -0.0000 0.9560
vn 0.9560 -0.0000 0.2934
vn 0.2934 -0.0000 -0.9560
vn -0.9560 -0.0000 -0.2934
vn -0.0000 -1.0000 -0.0000
vn -0.0000 1.0000 -0.0000
vn -0.4922 -0.0000 0.8705
vn -0.4924 -0.0000 0.8704
vn 0.5077 -0.0000 0.8615
vn 1.0000 -0.0000 -0.0089
vn 1.0000 -0.0000 -0.0088
vn 0.4922 -0.0000 -0.8705
vn 0.4923 -0.0000 -0.8704
vn -0.5076 -0.0000 -0.8616
vn -1.0000 -0.0000 0.0091
vn -1.0000 -0.0000 0.0089
vn -1.0000 -0.0000 0.0088
vn -0.4923 -0.0000 0.8704
vn -0.5077 -0.0000 -0.8615
vt 0.000000 1.000000
vt 1.000000 0.750000
vt 0.000000 0.750000
vt 0.000000 0.250000
vt 1.000000 0.000000
vt 0.000000 0.000000
vt 0.000000 0.500000
vt 1.000000 0.250000
vt 1.000000 0.500000
vt 1.000000 0.833333
vt 0.000000 0.833333
vt 0.000000 0.166667
vt 0.000000 0.333333
vt 1.000000 0.166667
vt 1.000000 0.333333
vt 0.000000 0.666667
vt 1.000000 0.666667
vt 1.000000 1.000000
s 1
f 1/1/1 8/2/1 4/3/1
f 2/4/2 5/5/2 1/6/2
f 3/7/3 6/8/3 2/4/3
f 4/3/4 7/9/4 3/7/4
f 9/1/1 16/2/1 12/3/1
f 10/4/2 13/5/2 9/6/2
f 11/7/3 14/8/3 10/4/3
f 12/3/4 15/9/4 11/7/4
f 17/1/1 24/2/1 20/3/1
f 18/4/2 21/5/2 17/6/2
f 19/7/3 22/8/3 18/4/3
f 20/3/4 23/9/4 19/7/4
f 25/1/1 32/2/1 28/3/1
f 26/4/2 29/5/2 25/6/2
f 27/7/3 30/8/3 26/4/3
f 28/3/4 31/9/4 27/7/4
f 33/1/1 40/2/1 36/3/1
f 34/4/2 37/5/2 33/6/2
f 35/7/3 38/8/3 34/4/3
f 36/3/4 39/9/4 35/7/4
f 41/1/1 48/2/1 44/3/1
f 42/4/2 45/5/2 41/6/2
f 43/7/3 46/8/3 42/4/3
f 44/3/4 47/9/4 43/7/4
f 49/1/1 56/2/1 52/3/1
f 50/4/2 53/5/2 49/6/2
f 51/7/3 54/8/3 50/4/3
f 52/3/4 55/9/4 51/7/4
f 57/1/1 64/2/1 60/3/1
f 58/4/2 61/5/2 57/6/2
f 59/7/3 62/8/3 58/4/3
f 60/3/4 63/9/4 59/7/4
f 65/1/1 72/2/1 68/3/1
f 66/4/2 69/5/2 65/6/2
f 67/7/3 70/8/3 66/4/3
f 68/3/4 71/9/4 67/7/4
f 73/1/1 80/2/1 76/3/1
f 74/4/2 77/5/2 73/6/2
f 75/7/3 78/8/3 74/4/3
f 76/3/4 79/9/4 75/7/4
f 81/1/4 88/2/4 84/3/4
f 82/4/3 85/5/3 81/6/3
f 83/7/2 86/8/2 82/4/2
f 84/3/1 87/9/1 83/7/1
f 89/1/4 96/2/4 92/3/4
f 90/4/3 93/5/3 89/6/3
f 91/7/2 94/8/2 90/4/2
f 92/3/1 95/9/1 91/7/1
f 97/1/1 104/2/1 100/3/1
f 98/4/2 101/5/2 97/6/2
f 99/7/3 102/8/3 98/4/3
f 100/3/4 103/9/4 99/7/4
f 4/3/5 2/4/5 1/6/5
f 8/2/6 6/8/6 7/9/6
f 12/3/5 10/4/5 9/6/5
f 16/2/6 14/8/6 15/9/6
f 20/3/5 18/4/5 17/6/5
f 24/2/6 22/8/6 23/9/6
f 28/3/5 26/4/5 25/6/5
f 32/2/6 30/8/6 31/9/6
f 36/3/5 34/4/5 33/6/5
f 40/2/6 38/8/6 39/9/6
f 44/3/5 42/4/5 41/6/5
f 48/2/6 46/8/6 47/9/6
f 52/3/5 50/4/5 49/6/5
f 56/2/6 54/8/6 55/9/6
f 60/3/5 58/4/5 57/6/5
f 64/2/6 62/8/6 63/9/6
f 68/3/5 66/4/5 65/6/5
f 72/2/6 70/8/6 71/9/6
f 76/3/5 74/4/5 73/6/5
f 80/2/6 78/8/6 79/9/6
f 84/3/6 82/4/6 81/6/6
f 88/2/5 86/8/5 87/9/5
f 92/3/6 90/4/6 89/6/6
f 96/2/5 94/8/5 95/9/5
f 100/3/5 98/4/5 97/6/5
f 104/2/6 102/8/6 103/9/6
f 105/1/7 116/10/8 110/11/7
f 106/12/9 111/5/9 105/6/9
f 107/13/10 112/14/11 106/12/10
f 108/7/12 113/15/13 107/13/12
f 109/16/14 114/9/14 108/7/14
f 110/11/15 115/17/16 109/16/15
f 117/1/7 128/10/8 122/11/7
f 118/12/9 123/5/9 117/6/9
f 119/13/11 124/14/10 118/12/11
f 120/7/13 125/15/12 119/13/13
f 121/16/14 126/9/14 120/7/14
f 122/11/17 127/17/16 121/16/17
f 129/1/8 140/10/7 134/11/8
f 130/12/9 135/5/9 129/6/9
f 131/13/11 136/14/10 130/12/11
f 132/7/13 137/15/12 131/13/13
f 133/16/14 138/9/14 132/7/14
f 134/11/16 139/17/17 133/16/16
f 141/1/7 152/10/8 146/11/7
f 142/12/9 147/5/9 141/6/9
f 143/13/10 148/14/10 142/12/10
f 144/7/12 149/15/13 143/13/12
f 145/16/14 150/9/14 144/7/14
f 146/11/16 151/17/17 145/16/16
f 153/1/8 164/10/7 158/11/8
f 154/12/9 159/5/9 153/6/9
f 155/13/10 160/14/10 154/12/10
f 156/7/13 161/15/12 155/13/13
f 157/16/14 162/9/14 156/7/14
f 158/11/16 163/17/16 157/16/16
f 165/1/8 176/10/7 170/11/8
f 166/12/9 171/5/9 165/6/9
f 167/13/11 172/14/10 166/12/11
f 168/7/12 173/15/13 167/13/12
f 169/16/14 174/9/14 168/7/14
f 170/11/16 175/17/16 169/16/16
f 177/1/8 188/10/18 182/11/8
f 178/12/9 183/5/9 177/6/9
f 179/13/10 184/14/11 178/12/10
f 180/7/13 185/15/12 179/13/13
f 181/16/14 186/9/14 180/7/14
f 182/11/17 187/17/16 181/16/17
f 189/1/18 200/10/7 194/11/18
f 190/12/9 195/5/9 189/6/9
f 191/13/11 196/14/10 190/12/11
f 192/7/13 197/15/13 191/13/13
f 193/16/14 198/9/14 192/7/14
f 194/11/17 199/17/16 193/16/17
f 201/1/7 212/10/18 206/11/7
f 202/12/9 207/5/9 201/6/9
f 203/13/10 208/14/11 202/12/10
f 204/7/13 209/15/13 203/13/13
f 205/16/19 210/9/19 204/7/19
f 206/11/17 211/17/17 205/16/17
f 213/1/18 224/10/18 218/11/18
f 214/12/9 219/5/9 213/6/9
f 215/13/10 220/14/11 214/12/10
f 216/7/13 221/15/12 215/13/13
f 217/16/19 222/9/19 216/7/19
f 218/11/16 223/17/17 217/16/16
f 225/1/8 236/10/7 230/11/8
f 226/12/9 231/5/9 225/6/9
f 227/13/10 232/14/11 226/12/10
f 228/7/13 233/15/12 227/13/13
f 229/16/14 234/9/14 228/7/14
f 230/11/16 235/17/16 229/16/16
f 237/1/16 248/10/16 242/11/16
f 238/12/19 243/5/19 237/6/19
f 239/13/13 244/14/13 238/12/13
f 240/7/10 245/15/11 239/13/10
f 241/16/9 246/9/9 240/7/9
f 242/11/8 247/17/18 241/16/8
f 109/16/5 107/13/5 105/6/5
f 111/5/6 113/15/6 115/17/6
f 121/16/5 119/13/5 117/6/5
f 123/5/6 125/15/6 127/17/6
f 133/16/5 131/13/5 129/6/5
f 135/5/6 137/15/6 139/17/6
f 145/16/5 143/13/5 141/6/5
f 147/5/6 149/15/6 151/17/6
f 157/16/5 155/13/5 153/6/5
f 159/5/6 161/15/6 163/17/6
f 169/16/5 167/13/5 165/6/5
f 171/5/6 173/15/6 175/17/6
f 181/16/5 179/13/5 177/6/5
f 183/5/6 185/15/6 187/17/6
f 193/16/5 191/13/5 189/6/5
f 195/5/6 197/15/6 199/17/6
f 205/16/5 203/13/5 201/6/5
f 207/5/6 209/15/6 211/17/6
f 217/16/5 215/13/5 213/6/5
f 219/5/6 221/15/6 223/17/6
f 229/16/5 227/13/5 225/6/5
f 231/5/6 233/15/6 235/17/6
f 241/16/6 239/13/6 237/6/6
f 243/5/5 245/15/5 247/17/5
f 1/1/1 5/18/1 8/2/1
f 2/4/2 6/8/2 5/5/2
f 3/7/3 7/9/3 6/8/3
f 4/3/4 8/2/4 7/9/4
f 9/1/1 13/18/1 16/2/1
f 10/4/2 14/8/2 13/5/2
f 11/7/3 15/9/3 14/8/3
f 12/3/4 16/2/4 15/9/4
f 17/1/1 21/18/1 24/2/1
f 18/4/2 22/8/2 21/5/2
f 19/7/3 23/9/3 22/8/3
f 20/3/4 24/2/4 23/9/4
f 25/1/1 29/18/1 32/2/1
f 26/4/2 30/8/2 29/5/2
f 27/7/3 31/9/3 30/8/3
f 28/3/4 32/2/4 31/9/4
f 33/1/1 37/18/1 40/2/1
f 34/4/2 38/8/2 37/5/2
f 35/7/3 39/9/3 38/8/3
f 36/3/4 40/2/4 39/9/4
f 41/1/1 45/18/1 48/2/1
f 42/4/2 46/8/2 45/5/2
f 43/7/3 47/9/3 46/8/3
f 44/3/4 48/2/4 47/9/4
f 49/1/1 53/18/1 56/2/1
f 50/4/2 54/8/2 53/5/2
f 51/7/3 55/9/3 54/8/3
f 52/3/4 56/2/4 55/9/4
f 57/1/1 61/18/1 64/2/1
f 58/4/2 62/8/2 61/5/2
f 59/7/3 63/9/3 62/8/3
f 60/3/4 64/2/4 63/9/4
f 65/1/1 69/18/1 72/2/1
f 66/4/2 70/8/2 69/5/2
f 67/7/3 71/9/3 70/8/3
f 68/3/4 72/2/4 71/9/4
f 73/1/1 77/18/1 80/2/1
f 74/4/2 78/8/2 77/5/2
f 75/7/3 79/9/3 78/8/3
f 76/3/4 80/2/4 79/9/4
f 81/1/4 85/18/4 88/2/4
f 82/4/3 86/8/3 85/5/3
f 83/7/2 87/9/2 86/8/2
f 84/3/1 88/2/1 87/9/1
f 89/1/4 93/18/4 96/2/4
f 90/4/3 94/8/3 93/5/3
f 91/7/2 95/9/2 94/8/2
f 92/3/1 96/2/1 95/9/1
f 97/1/1 101/18/1 104/2/1
f 98/4/2 102/8/2 101/5/2
f 99/7/3 103/9/3 102/8/3
f 100/3/4 104/2/4 103/9/4
f 4/3/5 3/7/5 2/4/5
f 8/2/6 5/5/6 6/8/6
f 12/3/5 11/7/5 10/4/5
f 16/2/6 13/5/6 14/8/6
f 20/3/5 19/7/5 18/4/5
f 24/2/6 21/5/6 22/8/6
f 28/3/5 27/7/5 26/4/5
f 32/2/6 29/5/6 30/8/6
f 36/3/5 35/7/5 34/4/5
f 40/2/6 37/5/6 38/8/6
f 44/3/5 43/7/5 42/4/5
f 48/2/6 45/5/6 46/8/6
f 52/3/5 51/7/5 50/4/5
f 56/2/6 53/5/6 54/8/6
f 60/3/5 59/7/5 58/4/5
f 64/2/6 61/5/6 62/8/6
f 68/3/5 67/7/5 66/4/5
f 72/2/6 69/5/6 70/8/6
f 76/3/5 75/7/5 74/4/5
f 80/2/6 77/5/6 78/8/6
f 84/3/6 83/7/6 82/4/6
f 88/2/5 85/5/5 86/8/5
f 92/3/6 91/7/6 90/4/6
f 96/2/5 93/5/5 94/8/5
f 100/3/5 99/7/5 98/4/5
f 104/2/6 101/5/6 102/8/6
f 105/1/7 111/18/8 116/10/8
f 106/12/9 112/14/9 111/5/9
f 107/13/10 113/15/11 112/14/11
f 108/7/12 114/9/13 113/15/13
f 109/16/14 115/17/14 114/9/14
f 110/11/15 116/10/16 115/17/16
f 117/1/7 123/18/8 128/10/8
f 118/12/9 124/14/9 123/5/9
f 119/13/11 125/15/10 124/14/10
f 120/7/13 126/9/12 125/15/12
f 121/16/14 127/17/14 126/9/14
f 122/11/17 128/10/16 127/17/16
f 129/1/8 135/18/7 140/10/7
f 130/12/9 136/14/9 135/5/9
f 131/13/11 137/15/10 136/14/10
f 132/7/13 138/9/12 137/15/12
f 133/16/14 139/17/14 138/9/14
f 134/11/16 140/10/17 139/17/17
f 141/1/7 147/18/8 152/10/8
f 142/12/9 148/14/9 147/5/9
f 143/13/10 149/15/10 148/14/10
f 144/7/12 150/9/13 149/15/13
f 145/16/14 151/17/14 150/9/14
f 146/11/16 152/10/17 151/17/17
f 153/1/8 159/18/7 164/10/7
f 154/12/9 160/14/9 159/5/9
f 155/13/10 161/15/10 160/14/10
f 156/7/13 162/9/12 161/15/12
f 157/16/14 163/17/14 162/9/14
f 158/11/16 164/10/16 163/17/16
f 165/1/8 171/18/7 176/10/7
f 166/12/9 172/14/9 171/5/9
f 167/13/11 173/15/10 172/14/10
f 168/7/12 174/9/13 173/15/13
f 169/16/14 175/17/14 174/9/14
f 170/11/16 176/10/16 175/17/16
f 177/1/8 183/18/18 188/10/18
f 178/12/9 184/14/9 183/5/9
f 179/13/10 185/15/11 184/14/11
f 180/7/13 186/9/12 185/15/12
f 181/16/14 187/17/14 186/9/14
f 182/11/17 188/10/16 187/17/16
f 189/1/18 195/18/7 200/10/7
f 190/12/9 196/14/9 195/5/9
f 191/13/11 197/15/10 196/14/10
f 192/7/13 198/9/13 197/15/13
f 193/16/14 199/17/14 198/9/14
f 194/11/17 200/10/16 199/17/16
f 201/1/7 207/18/18 212/10/18
f 202/12/9 208/14/9 207/5/9
f 203/13/10 209/15/11 208/14/11
f 204/7/13 210/9/13 209/15/13
f 205/16/19 211/17/19 210/9/19
f 206/11/17 212/10/17 211/17/17
f 213/1/18 219/18/18 224/10/18
f 214/12/9 220/14/9 219/5/9
f 215/13/10 221/15/11 220/14/11
f 216/7/13 222/9/12 221/15/12
f 217/16/19 223/17/19 222/9/19
f 218/11/16 224/10/17 223/17/17
f 225/1/8 231/18/7 236/10/7
f 226/12/9 232/14/9 231/5/9
f 227/13/10 233/15/11 232/14/11
f 228/7/13 234/9/12 233/15/12
f 229/16/14 235/17/14 234/9/14
f 230/11/16 236/10/16 235/17/16
f 237/1/16 243/18/16 248/10/16
f 238/12/19 244/14/19 243/5/19
f 239/13/13 245/15/13 244/14/13
f 240/7/10 246/9/11 245/15/11
f 241/16/9 247/17/9 246/9/9
f 242/11/8 248/10/18 247/17/18
f 105/6/5 110/11/5 109/16/5
f 109/16/5 108/7/5 107/13/5
f 107/13/5 106/12/5 105/6/5
f 115/17/6 116/10/6 111/5/6
f 111/5/6 112/14/6 113/15/6
f 113/15/6 114/9/6 115/17/6
f 117/6/5 122/11/5 121/16/5
f 121/16/5 120/7/5 119/13/5
f 119/13/5 118/12/5 117/6/5
f 127/17/6 128/10/6 123/5/6
f 123/5/6 124/14/6 125/15/6
f 125/15/6 126/9/6 127/17/6
f 129/6/5 134/11/5 133/16/5
f 133/16/5 132/7/5 131/13/5
f 131/13/5 130/12/5 129/6/5
f 139/17/6 140/10/6 135/5/6
f 135/5/6 136/14/6 137/15/6
f 137/15/6 138/9/6 139/17/6
f 141/6/5 146/11/5 145/16/5
f 145/16/5 144/7/5 143/13/5
f 143/13/5 142/12/5 141/6/5
f 151/17/6 152/10/6 147/5/6
f 147/5/6 148/14/6 149/15/6
f 149/15/6 150/9/6 151/17/6
f 153/6/5 158/11/5 157/16/5
f 157/16/5 156/7/5 155/13/5
f 155/13/5 154/12/5 153/6/5
f 163/17/6 164/10/6 159/5/6
f 159/5/6 160/14/6 161/15/6
f 161/15/6 162/9/6 163/17/6
f 165/6/5 170/11/5 169/16/5
f 169/16/5 168/7/5 167/13/5
f 167/13/5 166/12/5 165/6/5
f 175/17/6 176/10/6 171/5/6
f 171/5/6 172/14/6 173/15/6
f 173/15/6 174/9/6 175/17/6
f 177/6/5 182/11/5 181/16/5
f 181/16/5 180/7/5 179/13/5
f 179/13/5 178/12/5 177/6/5
f 187/17/6 188/10/6 183/5/6
f 183/5/6 184/14/6 185/15/6
f 185/15/6 186/9/6 187/17/6
f 189/6/5 194/11/5 193/16/5
f 193/16/5 192/7/5 191/13/5
f 191/13/5 190/12/5 189/6/5
f 199/17/6 200/10/6 195/5/6
f 195/5/6 196/14/6 197/15/6
f 197/15/6 198/9/6 199/17/6
f 201/6/5 206/11/5 205/16/5
f 205/16/5 204/7/5 203/13/5
f 203/13/5 202/12/5 201/6/5
f 211/17/6 212/10/6 207/5/6
f 207/5/6 208/14/6 209/15/6
f 209/15/6 210/9/6 211/17/6
f 213/6/5 218/11/5 217/16/5
f 217/16/5 216/7/5 215/13/5
f 215/13/5 214/12/5 213/6/5
f 223/17/6 224/10/6 219/5/6
f 219/5/6 220/14/6 221/15/6
f 221/15/6 222/9/6 223/17/6
f 225/6/5 230/11/5 229/16/5
f 229/16/5 228/7/5 227/13/5
f 227/13/5 226/12/5 225/6/5
f 235/17/6 236/10/6 231/5/6
f 231/5/6 232/14/6 233/15/6
f 233/15/6 234/9/6 235/17/6
f 237/6/6 242/11/6 241/16/6
f 241/16/6 240/7/6 239/13/6
f 239/13/6 238/12/6 237/6/6
f 247/17/5 248/10/5 243/5/5
f 243/5/5 244/14/5 245/15/5
f 245/15/5 246/9/5 247/17/5
