# Blender 4.3.0
# www.blender.org
mtllib Doors.mtl
o Doors
v 8.699661 -1.204057 -40.482033
v 8.699661 0.916897 -40.482033
v 3.004642 -1.204057 -50.422165
v 3.004642 0.916897 -50.422165
v 3.582129 -1.204057 -49.414215
v 3.582129 0.916897 -49.414215
v 9.277148 -1.204057 -39.474079
v 9.277148 0.916897 -39.474079
v 6.801322 -1.204057 -43.795410
v 6.801322 0.916897 -43.795410
v 7.378808 -1.204057 -42.787460
v 7.378808 0.916897 -42.787460
v 4.902980 -1.204057 -47.108784
v 4.902980 0.916897 -47.108784
v 5.480466 -1.204057 -46.100838
v 5.480466 0.916897 -46.100834
v -169.344009 -169.344025 169.343979
v -169.344009 169.344025 169.343979
v -169.344009 -169.344025 -169.343979
v -169.344009 169.344025 -169.343979
v 169.343994 -169.344025 169.343964
v 169.343994 169.344025 169.343964
v 169.344009 -169.344025 -169.343964
v 169.344009 169.344025 -169.343964
v 7.359375 -1.263950 -4.956131
v 7.359375 0.857003 -4.956131
v 7.355515 -1.263950 -3.794479
v 7.355515 0.857003 -3.794479
vn -0.8677 -0.0000 0.4971
vn -1.0000 -0.0000 -0.0033
vt 0.990780 1.000871
vt 0.000269 0.000332
vt 0.000269 1.000871
vt 0.990779 1.000871
vt 0.000268 0.000332
vt 0.000268 1.000871
vt 0.990779 1.000871
vt 0.000269 0.000332
vt 0.000269 1.000871
vt 0.990780 0.000332
vt 0.990779 0.000332
vt 0.990779 0.000331
s 1
usemtl Material
f 2/1/1 7/2/1 8/3/1
f 4/4/1 5/5/1 6/6/1
f 10/7/1 11/8/1 12/9/1
f 14/7/1 15/8/1 16/9/1
f 2/1/1 1/10/1 7/2/1
f 4/4/1 3/11/1 5/5/1
f 10/7/1 9/12/1 11/8/1
f 14/7/1 13/12/1 15/8/1
f 26/1/2 27/2/2 28/3/2
f 26/1/2 25/10/2 27/2/2
