# Blender 4.2.3 LTS
# www.blender.org
mtllib Flat_Terrain.mtl
o Flat_Terrain
v 128.228195 -1.292105 -31.101954
v -41.473431 -1.292105 -149.562317
v 34.205456 -1.292105 103.591301
v -135.496185 -1.292105 -14.869070
v -169.344055 -169.344025 169.344009
v -169.344055 169.344025 169.344009
v -169.344040 -169.344025 -169.343994
v -169.344040 169.344025 -169.343994
v 169.344025 -169.344025 169.344009
v 169.344025 169.344025 169.344009
v 169.344040 -169.344025 -169.344009
v 169.344040 169.344025 -169.344009
vn -0.0000 1.0000 -0.0000
vt -62.215668 -62.215668
vt 63.215668 -62.215668
vt 63.215668 63.215668
vt -62.215668 63.215668
s 1
usemtl Dirt_Material
f 1/1/1 2/2/1 4/3/1 3/4/1
