# Blender 4.2.3 LTS
# www.blender.org
mtllib Garage_Door2.mtl
o Garage_Door2
v -12.738716 1.326094 -30.642683
v -12.738714 -0.974339 -30.642679
v -9.196250 1.326094 -24.631050
v -11.951475 1.326095 -29.306721
v -9.196249 -0.974339 -24.631050
v -11.951475 -0.974339 -29.306721
v -15.493941 -0.974339 -35.318348
v -15.493940 1.326095 -35.318352
v -169.344040 -169.344025 169.343994
v -169.344040 169.344025 169.343994
v -169.344040 -169.344025 -169.344009
v -169.344040 169.344025 -169.344009
v 169.344040 -169.344025 169.343994
v 169.344040 169.344025 169.343994
v 169.344025 -169.344025 -169.343994
v 169.344025 169.344025 -169.343994
vn 0.8615 -0.0000 -0.5077
vt 1.279138 0.928969
vt -0.182600 1.856891
vt -0.182600 0.928969
vt -0.182599 0.928272
vt 1.279137 0.000349
vt 1.279139 0.928271
vt 1.279139 1.856891
vt -0.182601 0.000350
s 1
usemtl Garage_Door_Material
f 3/1/1 6/2/1 4/3/1
f 1/4/1 7/5/1 8/6/1
f 3/1/1 5/7/1 6/2/1
f 1/4/1 2/8/1 7/5/1
