# Blender 4.2.3 LTS
# www.blender.org
mtllib Garage_Door1.mtl
o Garage_Door1
v 2.422225 1.987062 29.724579
v -5.822661 1.987062 33.845055
v 2.422225 -1.254057 29.724579
v -5.822661 -1.254057 33.845055
v 2.374522 1.987062 29.629128
v -5.870364 1.987062 33.749603
v 2.374522 -1.254057 29.629128
v -5.870364 -1.254057 33.749603
v -169.344025 -169.344025 169.344025
v -169.344025 169.344025 169.344025
v -169.344040 -169.344025 -169.344025
v -169.344040 169.344025 -169.344025
v 169.344040 -169.344025 169.344025
v 169.344040 169.344025 169.344025
v 169.344040 -169.344025 -169.343994
v 169.344040 169.344025 -169.343994
vn 0.4470 -0.0000 0.8945
vn -0.4470 -0.0000 -0.8945
vn -0.8945 -0.0000 0.4470
vn -0.0000 -1.0000 -0.0000
vn 0.8945 -0.0000 -0.4470
vn -0.0000 1.0000 -0.0000
vt 0.000000 0.000000
vt 1.000000 1.000000
vt 0.000000 1.000000
vt 1.000000 0.000000
s 1
usemtl Garage_Door_Material
f 2/1/1 3/1/1 1/1/1
f 6/1/2 7/2/2 8/3/2
f 4/1/3 6/1/3 8/1/3
f 3/1/4 8/1/4 7/1/4
f 1/1/5 7/1/5 5/1/5
f 2/1/6 5/1/6 6/1/6
f 2/1/1 4/1/1 3/1/1
f 6/1/2 5/4/2 7/2/2
f 4/1/3 2/1/3 6/1/3
f 3/1/4 4/1/4 8/1/4
f 1/1/5 3/1/5 7/1/5
f 2/1/6 1/1/6 5/1/6
