# Blender 4.2.3 LTS
# www.blender.org
mtllib Metal_Sheets.mtl
o Metal_Sheets
v 2.579381 9.376389 28.904644
v 2.579382 6.162626 28.904644
v 1.680976 9.376389 27.106976
v 1.680977 6.162626 27.106976
v 1.770817 6.162626 27.286743
v 1.860657 6.162626 27.466509
v 1.950498 6.162626 27.646275
v 2.040339 6.162626 27.826042
v 2.130178 6.162626 28.005810
v 2.220019 6.162626 28.185577
v 2.309860 6.162626 28.365343
v 2.399700 6.162626 28.545111
v 2.489542 6.162626 28.724878
v 1.770817 9.376389 27.286743
v 1.860657 9.376389 27.466509
v 1.950498 9.376389 27.646275
v 2.040339 9.376389 27.826042
v 2.130178 9.376389 28.005810
v 2.220019 9.376389 28.185577
v 2.309859 9.376389 28.365343
v 2.399700 9.376389 28.545111
v 2.489541 9.376389 28.724878
v 2.392349 9.376389 28.661118
v 2.302507 9.376389 28.481350
v 2.212667 9.376389 28.301584
v 2.122828 9.376389 28.121817
v 2.032987 9.376389 27.942051
v 1.943146 9.376389 27.762281
v 1.853306 9.376389 27.582516
v 1.763465 9.376389 27.402750
v 1.673625 9.376389 27.222982
v 2.392349 6.162626 28.661118
v 2.302508 6.162626 28.481350
v 2.212668 6.162626 28.301582
v 2.122828 6.162626 28.121817
v 2.032988 6.162626 27.942051
v 1.943146 6.162626 27.762281
v 1.853306 6.162626 27.582516
v 1.763466 6.162626 27.402748
v 1.673625 6.162626 27.222982
v 2.482189 9.376389 28.840885
v 2.482190 6.162626 28.840885
v 2.579381 5.762438 28.904644
v 2.579382 2.548676 28.904644
v 1.680976 5.762438 27.106976
v 1.680977 2.548676 27.106976
v 1.770817 2.548676 27.286743
v 1.860657 2.548676 27.466509
v 1.950498 2.548676 27.646275
v 2.040339 2.548676 27.826042
v 2.130178 2.548676 28.005810
v 2.220019 2.548676 28.185577
v 2.309860 2.548676 28.365343
v 2.399700 2.548676 28.545111
v 2.489542 2.548676 28.724878
v 1.770817 5.762438 27.286743
v 1.860657 5.762438 27.466509
v 1.950498 5.762438 27.646275
v 2.040339 5.762438 27.826042
v 2.130178 5.762438 28.005810
v 2.220019 5.762438 28.185577
v 2.309859 5.762438 28.365343
v 2.399700 5.762438 28.545111
v 2.489541 5.762438 28.724878
v 2.392349 5.762438 28.661118
v 2.302507 5.762438 28.481350
v 2.212667 5.762438 28.301584
v 2.122828 5.762438 28.121817
v 2.032987 5.762438 27.942051
v 1.943146 5.762438 27.762281
v 1.853306 5.762438 27.582516
v 1.763465 5.762438 27.402750
v 1.673625 5.762438 27.222982
v 2.392349 2.548676 28.661118
v 2.302508 2.548676 28.481350
v 2.212668 2.548676 28.301582
v 2.122828 2.548676 28.121817
v 2.032988 2.548676 27.942051
v 1.943146 2.548676 27.762281
v 1.853306 2.548676 27.582516
v 1.763466 2.548676 27.402748
v 1.673625 2.548676 27.222982
v 2.482189 5.762438 28.840885
v 2.482190 2.548676 28.840885
v -1.960325 9.376389 31.173412
v -1.960324 6.162626 31.173412
v -2.858730 9.376389 29.375744
v -2.858729 6.162626 29.375744
v -2.768888 6.162626 29.555511
v -2.679049 6.162626 29.735277
v -2.589209 6.162626 29.915045
v -2.499367 6.162626 30.094812
v -2.409527 6.162626 30.274578
v -2.319687 6.162626 30.454346
v -2.229846 6.162626 30.634111
v -2.140005 6.162626 30.813879
v -2.050164 6.162626 30.993647
v -2.768890 9.376389 29.555511
v -2.679049 9.376389 29.735279
v -2.589209 9.376389 29.915045
v -2.499369 9.376389 30.094812
v -2.409528 9.376389 30.274578
v -2.319687 9.376389 30.454346
v -2.229847 9.376389 30.634113
v -2.140006 9.376389 30.813881
v -2.050165 9.376389 30.993649
v -2.147356 9.376389 30.929886
v -2.237198 9.376389 30.750118
v -2.327038 9.376389 30.570353
v -2.416878 9.376389 30.390587
v -2.506719 9.376389 30.210819
v -2.596560 9.376389 30.031052
v -2.686399 9.376389 29.851284
v -2.776240 9.376389 29.671518
v -2.866081 9.376389 29.491753
v -2.147356 6.162626 30.929886
v -2.237198 6.162626 30.750118
v -2.327038 6.162626 30.570353
v -2.416878 6.162626 30.390587
v -2.506719 6.162626 30.210819
v -2.596560 6.162626 30.031052
v -2.686399 6.162626 29.851284
v -2.776240 6.162626 29.671518
v -2.866081 6.162626 29.491753
v -2.057516 9.376389 31.109653
v -2.057516 6.162626 31.109653
v -1.960325 5.762438 31.173412
v -1.960324 2.548676 31.173412
v -2.858730 5.762438 29.375744
v -2.858729 2.548676 29.375744
v -2.768888 2.548676 29.555511
v -2.679049 2.548676 29.735277
v -2.589209 2.548676 29.915045
v -2.499367 2.548676 30.094812
v -2.409527 2.548676 30.274578
v -2.319687 2.548676 30.454346
v -2.229846 2.548676 30.634111
v -2.140005 2.548676 30.813879
v -2.050164 2.548676 30.993647
v -2.768890 5.762438 29.555511
v -2.679049 5.762438 29.735279
v -2.589209 5.762438 29.915045
v -2.499369 5.762438 30.094812
v -2.409528 5.762438 30.274578
v -2.319687 5.762438 30.454346
v -2.229847 5.762438 30.634113
v -2.140006 5.762438 30.813881
v -2.050165 5.762438 30.993649
v -2.147356 5.762438 30.929886
v -2.237198 5.762438 30.750118
v -2.327038 5.762438 30.570353
v -2.416878 5.762438 30.390587
v -2.506719 5.762438 30.210819
v -2.596560 5.762438 30.031052
v -2.686399 5.762438 29.851284
v -2.776240 5.762438 29.671518
v -2.866081 5.762438 29.491753
v -2.147356 2.548676 30.929886
v -2.237198 2.548676 30.750118
v -2.327038 2.548676 30.570353
v -2.416878 2.548676 30.390587
v -2.506719 2.548676 30.210819
v -2.596560 2.548676 30.031052
v -2.686399 2.548676 29.851284
v -2.776240 2.548676 29.671518
v -2.866081 2.548676 29.491753
v -2.057516 5.762438 31.109653
v -2.057516 2.548676 31.109653
v -6.500031 9.376389 33.442181
v -6.500031 6.162626 33.442181
v -7.398436 9.376389 31.644512
v -7.398436 6.162626 31.644512
v -7.308596 6.162626 31.824280
v -7.218756 6.162626 32.004047
v -7.128914 6.162626 32.183815
v -7.039074 6.162626 32.363583
v -6.949232 6.162626 32.543346
v -6.859392 6.162626 32.723114
v -6.769552 6.162626 32.902882
v -6.679712 6.162626 33.082649
v -6.589870 6.162626 33.262417
v -7.308596 9.376389 31.824280
v -7.218756 9.376389 32.004047
v -7.128914 9.376389 32.183815
v -7.039074 9.376389 32.363583
v -6.949232 9.376389 32.543346
v -6.859392 9.376389 32.723114
v -6.769552 9.376389 32.902882
v -6.679712 9.376389 33.082649
v -6.589870 9.376389 33.262417
v -6.687063 9.376389 33.198654
v -6.776903 9.376389 33.018887
v -6.866743 9.376389 32.839123
v -6.956585 9.376389 32.659355
v -7.046425 9.376389 32.479588
v -7.136267 9.376389 32.299820
v -7.226107 9.376389 32.120052
v -7.315947 9.376389 31.940289
v -7.405787 9.376389 31.760521
v -6.687061 6.162626 33.198654
v -6.776903 6.162626 33.018887
v -6.866743 6.162626 32.839123
v -6.956583 6.162626 32.659355
v -7.046423 6.162626 32.479588
v -7.136265 6.162626 32.299820
v -7.226105 6.162626 32.120052
v -7.315947 6.162626 31.940287
v -7.405787 6.162626 31.760521
v -6.597223 9.376389 33.378422
v -6.597221 6.162626 33.378422
v -6.500031 5.762438 33.442181
v -6.500031 2.548676 33.442181
v -7.398436 5.762438 31.644512
v -7.398436 2.548676 31.644512
v -7.308596 2.548676 31.824280
v -7.218756 2.548676 32.004047
v -7.128914 2.548676 32.183815
v -7.039074 2.548676 32.363583
v -6.949232 2.548676 32.543346
v -6.859392 2.548676 32.723114
v -6.769552 2.548676 32.902882
v -6.679712 2.548676 33.082649
v -6.589870 2.548676 33.262417
v -7.308596 5.762438 31.824280
v -7.218756 5.762438 32.004047
v -7.128914 5.762438 32.183815
v -7.039074 5.762438 32.363583
v -6.949232 5.762438 32.543346
v -6.859392 5.762438 32.723114
v -6.769552 5.762438 32.902882
v -6.679712 5.762438 33.082649
v -6.589870 5.762438 33.262417
v -6.687063 5.762438 33.198654
v -6.776903 5.762438 33.018887
v -6.866743 5.762438 32.839123
v -6.956585 5.762438 32.659355
v -7.046425 5.762438 32.479588
v -7.136267 5.762438 32.299820
v -7.226107 5.762438 32.120052
v -7.315947 5.762438 31.940289
v -7.405787 5.762438 31.760521
v -6.687061 2.548676 33.198654
v -6.776903 2.548676 33.018887
v -6.866743 2.548676 32.839123
v -6.956583 2.548676 32.659355
v -7.046423 2.548676 32.479588
v -7.136265 2.548676 32.299820
v -7.226105 2.548676 32.120052
v -7.315947 2.548676 31.940287
v -7.405787 2.548676 31.760521
v -6.597223 5.762438 33.378422
v -6.597221 2.548676 33.378422
v -169.344025 -169.344025 169.344025
v -169.344025 169.344025 169.344025
v -169.344025 -169.344025 -169.344025
v -169.344025 169.344025 -169.344025
v 169.344055 -169.344025 169.344025
v 169.344055 169.344025 169.344025
v 169.344055 -169.344025 -169.344025
v 169.344055 169.344025 -169.344025
vn 0.5485 -0.0000 -0.8361
vn 0.9980 -0.0000 0.0632
vt -0.226241 0.442209
vt -0.306934 -1.355022
vt -0.226241 -1.355022
vt 1.145547 0.442209
vt 1.064853 -1.355022
vt 1.145547 -1.355022
vt 0.984160 0.442209
vt 0.903467 -1.355022
vt 0.984160 -1.355022
vt 0.822773 0.442209
vt 0.742080 -1.355022
vt 0.822773 -1.355022
vt 0.661386 0.442209
vt 0.580693 -1.355022
vt 0.661386 -1.355022
vt 0.500000 0.442209
vt 0.419306 -1.355022
vt 0.500000 -1.355022
vt 0.338613 0.442209
vt 0.257919 -1.355022
vt 0.338613 -1.355022
vt 0.177226 0.442209
vt 0.096533 -1.355022
vt 0.177226 -1.355022
vt 0.015839 0.442209
vt -0.064854 -1.355022
vt 0.015839 -1.355022
vt -0.145548 0.442209
vt -0.145548 -1.355022
vt 1.306934 0.442209
vt 1.226240 -1.355022
vt 1.306934 -1.355022
vt 1.226240 0.442209
vt 1.064853 0.442209
vt 0.903467 0.442209
vt 0.742080 0.442209
vt 0.580693 0.442209
vt 0.419306 0.442209
vt 0.257919 0.442209
vt 0.096533 0.442209
vt -0.064854 0.442209
vt -0.306934 0.442209
s 1
f 41/1/1 2/2/1 42/3/1
f 14/4/2 39/5/2 5/6/2
f 15/7/2 38/8/2 6/9/2
f 16/10/2 37/11/2 7/12/2
f 17/13/2 36/14/2 8/15/2
f 18/16/2 35/17/2 9/18/2
f 19/19/2 34/20/2 10/21/2
f 20/22/2 33/23/2 11/24/2
f 21/25/2 32/26/2 12/27/2
f 22/28/2 42/3/2 13/29/2
f 3/30/2 40/31/2 4/32/2
f 31/33/1 5/6/1 40/31/1
f 30/34/1 6/9/1 39/5/1
f 29/35/1 7/12/1 38/8/1
f 28/36/1 8/15/1 37/11/1
f 27/37/1 9/18/1 36/14/1
f 26/38/1 10/21/1 35/17/1
f 25/39/1 11/24/1 34/20/1
f 24/40/1 12/27/1 33/23/1
f 23/41/1 13/29/1 32/26/1
f 83/1/1 44/2/1 84/3/1
f 56/4/2 81/5/2 47/6/2
f 57/7/2 80/8/2 48/9/2
f 58/10/2 79/11/2 49/12/2
f 59/13/2 78/14/2 50/15/2
f 60/16/2 77/17/2 51/18/2
f 61/19/2 76/20/2 52/21/2
f 62/22/2 75/23/2 53/24/2
f 63/25/2 74/26/2 54/27/2
f 64/28/2 84/3/2 55/29/2
f 45/30/2 82/31/2 46/32/2
f 73/33/1 47/6/1 82/31/1
f 72/34/1 48/9/1 81/5/1
f 71/35/1 49/12/1 80/8/1
f 70/36/1 50/15/1 79/11/1
f 69/37/1 51/18/1 78/14/1
f 68/38/1 52/21/1 77/17/1
f 67/39/1 53/24/1 76/20/1
f 66/40/1 54/27/1 75/23/1
f 65/41/1 55/29/1 74/26/1
f 125/1/1 86/2/1 126/3/1
f 98/4/2 123/5/2 89/6/2
f 99/7/2 122/8/2 90/9/2
f 100/10/2 121/11/2 91/12/2
f 101/13/2 120/14/2 92/15/2
f 102/16/2 119/17/2 93/18/2
f 103/19/2 118/20/2 94/21/2
f 104/22/2 117/23/2 95/24/2
f 105/25/2 116/26/2 96/27/2
f 106/28/2 126/3/2 97/29/2
f 87/30/2 124/31/2 88/32/2
f 115/33/1 89/6/1 124/31/1
f 114/34/1 90/9/1 123/5/1
f 113/35/1 91/12/1 122/8/1
f 112/36/1 92/15/1 121/11/1
f 111/37/1 93/18/1 120/14/1
f 110/38/1 94/21/1 119/17/1
f 109/39/1 95/24/1 118/20/1
f 108/40/1 96/27/1 117/23/1
f 107/41/1 97/29/1 116/26/1
f 167/1/1 128/2/1 168/3/1
f 140/4/2 165/5/2 131/6/2
f 141/7/2 164/8/2 132/9/2
f 142/10/2 163/11/2 133/12/2
f 143/13/2 162/14/2 134/15/2
f 144/16/2 161/17/2 135/18/2
f 145/19/2 160/20/2 136/21/2
f 146/22/2 159/23/2 137/24/2
f 147/25/2 158/26/2 138/27/2
f 148/28/2 168/3/2 139/29/2
f 129/30/2 166/31/2 130/32/2
f 157/33/1 131/6/1 166/31/1
f 156/34/1 132/9/1 165/5/1
f 155/35/1 133/12/1 164/8/1
f 154/36/1 134/15/1 163/11/1
f 153/37/1 135/18/1 162/14/1
f 152/38/1 136/21/1 161/17/1
f 151/39/1 137/24/1 160/20/1
f 150/40/1 138/27/1 159/23/1
f 149/41/1 139/29/1 158/26/1
f 209/1/1 170/2/1 210/3/1
f 182/4/2 207/5/2 173/6/2
f 183/7/2 206/8/2 174/9/2
f 184/10/2 205/11/2 175/12/2
f 185/13/2 204/14/2 176/15/2
f 186/16/2 203/17/2 177/18/2
f 187/19/2 202/20/2 178/21/2
f 188/22/2 201/23/2 179/24/2
f 189/25/2 200/26/2 180/27/2
f 190/28/2 210/3/2 181/29/2
f 171/30/2 208/31/2 172/32/2
f 199/33/1 173/6/1 208/31/1
f 198/34/1 174/9/1 207/5/1
f 197/35/1 175/12/1 206/8/1
f 196/36/1 176/15/1 205/11/1
f 195/37/1 177/18/1 204/14/1
f 194/38/1 178/21/1 203/17/1
f 193/39/1 179/24/1 202/20/1
f 192/40/1 180/27/1 201/23/1
f 191/41/1 181/29/1 200/26/1
f 251/1/1 212/2/1 252/3/1
f 224/4/2 249/5/2 215/6/2
f 225/7/2 248/8/2 216/9/2
f 226/10/2 247/11/2 217/12/2
f 227/13/2 246/14/2 218/15/2
f 228/16/2 245/17/2 219/18/2
f 229/19/2 244/20/2 220/21/2
f 230/22/2 243/23/2 221/24/2
f 231/25/2 242/26/2 222/27/2
f 232/28/2 252/3/2 223/29/2
f 213/30/2 250/31/2 214/32/2
f 241/33/1 215/6/1 250/31/1
f 240/34/1 216/9/1 249/5/1
f 239/35/1 217/12/1 248/8/1
f 238/36/1 218/15/1 247/11/1
f 237/37/1 219/18/1 246/14/1
f 236/38/1 220/21/1 245/17/1
f 235/39/1 221/24/1 244/20/1
f 234/40/1 222/27/1 243/23/1
f 233/41/1 223/29/1 242/26/1
f 41/1/1 1/42/1 2/2/1
f 14/4/2 30/34/2 39/5/2
f 15/7/2 29/35/2 38/8/2
f 16/10/2 28/36/2 37/11/2
f 17/13/2 27/37/2 36/14/2
f 18/16/2 26/38/2 35/17/2
f 19/19/2 25/39/2 34/20/2
f 20/22/2 24/40/2 33/23/2
f 21/25/2 23/41/2 32/26/2
f 22/28/2 41/1/2 42/3/2
f 3/30/2 31/33/2 40/31/2
f 31/33/1 14/4/1 5/6/1
f 30/34/1 15/7/1 6/9/1
f 29/35/1 16/10/1 7/12/1
f 28/36/1 17/13/1 8/15/1
f 27/37/1 18/16/1 9/18/1
f 26/38/1 19/19/1 10/21/1
f 25/39/1 20/22/1 11/24/1
f 24/40/1 21/25/1 12/27/1
f 23/41/1 22/28/1 13/29/1
f 83/1/1 43/42/1 44/2/1
f 56/4/2 72/34/2 81/5/2
f 57/7/2 71/35/2 80/8/2
f 58/10/2 70/36/2 79/11/2
f 59/13/2 69/37/2 78/14/2
f 60/16/2 68/38/2 77/17/2
f 61/19/2 67/39/2 76/20/2
f 62/22/2 66/40/2 75/23/2
f 63/25/2 65/41/2 74/26/2
f 64/28/2 83/1/2 84/3/2
f 45/30/2 73/33/2 82/31/2
f 73/33/1 56/4/1 47/6/1
f 72/34/1 57/7/1 48/9/1
f 71/35/1 58/10/1 49/12/1
f 70/36/1 59/13/1 50/15/1
f 69/37/1 60/16/1 51/18/1
f 68/38/1 61/19/1 52/21/1
f 67/39/1 62/22/1 53/24/1
f 66/40/1 63/25/1 54/27/1
f 65/41/1 64/28/1 55/29/1
f 125/1/1 85/42/1 86/2/1
f 98/4/2 114/34/2 123/5/2
f 99/7/2 113/35/2 122/8/2
f 100/10/2 112/36/2 121/11/2
f 101/13/2 111/37/2 120/14/2
f 102/16/2 110/38/2 119/17/2
f 103/19/2 109/39/2 118/20/2
f 104/22/2 108/40/2 117/23/2
f 105/25/2 107/41/2 116/26/2
f 106/28/2 125/1/2 126/3/2
f 87/30/2 115/33/2 124/31/2
f 115/33/1 98/4/1 89/6/1
f 114/34/1 99/7/1 90/9/1
f 113/35/1 100/10/1 91/12/1
f 112/36/1 101/13/1 92/15/1
f 111/37/1 102/16/1 93/18/1
f 110/38/1 103/19/1 94/21/1
f 109/39/1 104/22/1 95/24/1
f 108/40/1 105/25/1 96/27/1
f 107/41/1 106/28/1 97/29/1
f 167/1/1 127/42/1 128/2/1
f 140/4/2 156/34/2 165/5/2
f 141/7/2 155/35/2 164/8/2
f 142/10/2 154/36/2 163/11/2
f 143/13/2 153/37/2 162/14/2
f 144/16/2 152/38/2 161/17/2
f 145/19/2 151/39/2 160/20/2
f 146/22/2 150/40/2 159/23/2
f 147/25/2 149/41/2 158/26/2
f 148/28/2 167/1/2 168/3/2
f 129/30/2 157/33/2 166/31/2
f 157/33/1 140/4/1 131/6/1
f 156/34/1 141/7/1 132/9/1
f 155/35/1 142/10/1 133/12/1
f 154/36/1 143/13/1 134/15/1
f 153/37/1 144/16/1 135/18/1
f 152/38/1 145/19/1 136/21/1
f 151/39/1 146/22/1 137/24/1
f 150/40/1 147/25/1 138/27/1
f 149/41/1 148/28/1 139/29/1
f 209/1/1 169/42/1 170/2/1
f 182/4/2 198/34/2 207/5/2
f 183/7/2 197/35/2 206/8/2
f 184/10/2 196/36/2 205/11/2
f 185/13/2 195/37/2 204/14/2
f 186/16/2 194/38/2 203/17/2
f 187/19/2 193/39/2 202/20/2
f 188/22/2 192/40/2 201/23/2
f 189/25/2 191/41/2 200/26/2
f 190/28/2 209/1/2 210/3/2
f 171/30/2 199/33/2 208/31/2
f 199/33/1 182/4/1 173/6/1
f 198/34/1 183/7/1 174/9/1
f 197/35/1 184/10/1 175/12/1
f 196/36/1 185/13/1 176/15/1
f 195/37/1 186/16/1 177/18/1
f 194/38/1 187/19/1 178/21/1
f 193/39/1 188/22/1 179/24/1
f 192/40/1 189/25/1 180/27/1
f 191/41/1 190/28/1 181/29/1
f 251/1/1 211/42/1 212/2/1
f 224/4/2 240/34/2 249/5/2
f 225/7/2 239/35/2 248/8/2
f 226/10/2 238/36/2 247/11/2
f 227/13/2 237/37/2 246/14/2
f 228/16/2 236/38/2 245/17/2
f 229/19/2 235/39/2 244/20/2
f 230/22/2 234/40/2 243/23/2
f 231/25/2 233/41/2 242/26/2
f 232/28/2 251/1/2 252/3/2
f 213/30/2 241/33/2 250/31/2
f 241/33/1 224/4/1 215/6/1
f 240/34/1 225/7/1 216/9/1
f 239/35/1 226/10/1 217/12/1
f 238/36/1 227/13/1 218/15/1
f 237/37/1 228/16/1 219/18/1
f 236/38/1 229/19/1 220/21/1
f 235/39/1 230/22/1 221/24/1
f 234/40/1 231/25/1 222/27/1
f 233/41/1 232/28/1 223/29/1
