# Blender 4.2.3 LTS
# www.blender.org
mtllib Numberplate_front.mtl
o Numberplate_front
v 7.913682 -0.290348 -65.712914
v 7.883322 -0.482932 -65.698761
v 7.872402 -0.480799 -65.693665
v 7.902763 -0.288215 -65.707825
v 7.877948 -0.491827 -65.706619
v 7.788308 -0.491825 -65.898857
v 7.777389 -0.489692 -65.893768
v 7.867029 -0.489694 -65.701530
v 7.911114 -0.281453 -65.722084
v 7.900195 -0.279320 -65.716995
v 7.821474 -0.281451 -65.914322
v 7.810555 -0.279318 -65.909225
v 7.726460 -0.290344 -66.114418
v 7.715541 -0.288211 -66.109329
v 7.685180 -0.480795 -66.095169
v 7.696099 -0.482928 -66.100266
v 7.698668 -0.491823 -66.091095
v 7.687749 -0.489690 -66.086006
v 7.731833 -0.281449 -66.106560
v 7.720914 -0.279316 -66.101463
v -0.938910 -0.252040 -63.193489
v -0.939319 -0.447515 -63.193298
v -0.928229 -0.447506 -63.198467
v -0.927821 -0.252031 -63.198662
v -0.935367 -0.456543 -63.184772
v -0.845726 -0.456542 -62.992535
v -0.834638 -0.456532 -62.997707
v -0.924278 -0.456535 -63.189945
v -0.934920 -0.243011 -63.184982
v -0.923831 -0.243003 -63.190155
v -0.845280 -0.243009 -62.992748
v -0.834191 -0.243001 -62.997917
v -0.751687 -0.252035 -62.791985
v -0.740598 -0.252027 -62.797157
v -0.741006 -0.447502 -62.796963
v -0.752095 -0.447511 -62.791794
v -0.756085 -0.456539 -62.800301
v -0.744997 -0.456530 -62.805470
v -0.755639 -0.243007 -62.800510
v -0.744550 -0.242998 -62.805683
v -169.344055 -169.344025 169.344009
v -169.344040 169.344025 169.343994
v -169.344025 -169.344025 -169.343994
v -169.344025 169.344025 -169.343994
v 169.344040 -169.344025 169.344009
v 169.344040 169.344025 169.344009
v 169.344025 -169.344025 -169.343994
v 169.344055 169.344025 -169.343994
vn 0.4226 -0.0000 0.9063
vn -0.1580 -0.9847 0.0737
vn 0.1789 -0.7101 0.6811
vn 0.4068 0.7100 0.5748
vn 0.8929 -0.1714 -0.4164
vn 0.1580 0.9847 -0.0737
vn -0.4226 -0.0000 -0.9063
vn -0.4068 -0.7100 -0.5748
vn -0.4068 -0.7101 -0.5748
vn -0.1789 0.7100 -0.6811
vn -0.1788 0.7100 -0.6811
vn 0.8929 -0.1714 -0.4163
vn 0.0007 -1.0000 -0.0003
vn 0.0006 -1.0000 -0.0003
vn -0.2923 -0.7211 -0.6281
vn -0.2933 0.7211 -0.6277
vn -0.9063 0.0023 0.4226
vn -0.9063 0.0023 0.4227
vn -0.0007 1.0000 0.0003
vn -0.0006 1.0000 0.0003
vn 0.2933 -0.7211 0.6277
vn 0.2923 0.7211 0.6281
vn 0.2923 0.7211 0.6282
vt 0.999000 0.755843
vt 0.997061 0.828142
vt 0.998375 0.828195
vt 0.997524 0.755525
vt 0.916251 0.750205
vt 0.916266 0.752381
vt 0.994655 0.752721
vt 0.994233 0.751394
vt 0.994346 0.830860
vt 0.993841 0.832521
vt 0.916265 0.830912
vt 0.916251 0.833498
vt 0.834127 0.828194
vt 0.835470 0.828140
vt 0.833503 0.755843
vt 0.835008 0.755525
vt 0.838271 0.751394
vt 0.837876 0.752721
vt 0.838662 0.832520
vt 0.838184 0.830859
s 1
usemtl Van_Numberplate_Material
f 3/1/1 1/2/1 4/3/1
f 1/2/1 3/1/1 2/4/1
f 7/5/2 6/6/2 5/7/2
f 5/7/2 8/8/2 7/5/2
f 5/7/3 2/4/3 3/1/3
f 3/1/3 8/8/3 5/7/3
f 1/2/4 9/9/4 10/10/4
f 10/10/4 4/3/4 1/2/4
f 1/2/5 2/4/5 5/7/5
f 5/7/5 9/9/5 1/2/5
f 9/9/5 5/7/5 11/11/5
f 11/11/5 5/7/5 6/6/5
f 12/12/6 10/10/6 9/9/6
f 9/9/6 11/11/6 12/12/6
f 14/13/7 13/14/7 15/15/7
f 13/14/7 16/16/7 15/15/7
f 6/6/2 18/17/2 17/18/2
f 18/17/2 6/6/2 7/5/2
f 15/15/8 16/16/9 17/18/8
f 17/18/8 18/17/8 15/15/8
f 20/19/10 19/20/10 13/14/10
f 13/14/10 14/13/11 20/19/10
f 13/14/12 19/20/12 17/18/5
f 17/18/5 16/16/5 13/14/12
f 19/20/12 11/11/5 6/6/5
f 6/6/5 17/18/5 19/20/12
f 11/11/6 19/20/6 20/19/6
f 20/19/6 12/12/6 11/11/6
f 23/1/7 21/2/7 24/3/7
f 21/2/7 23/1/7 22/4/7
f 27/5/13 26/6/13 25/7/14
f 25/7/14 28/8/14 27/5/13
f 25/7/15 22/4/15 23/1/15
f 23/1/15 28/8/15 25/7/15
f 21/2/16 29/9/16 30/10/16
f 30/10/16 24/3/16 21/2/16
f 21/2/17 22/4/18 25/7/17
f 25/7/17 29/9/17 21/2/17
f 29/9/17 25/7/17 31/11/17
f 31/11/17 25/7/17 26/6/17
f 32/12/19 30/10/20 29/9/20
f 29/9/20 31/11/19 32/12/19
f 34/13/1 33/14/1 35/15/1
f 33/14/1 36/16/1 35/15/1
f 26/6/13 38/17/13 37/18/13
f 38/17/13 26/6/13 27/5/13
f 35/15/21 36/16/21 37/18/21
f 37/18/21 38/17/21 35/15/21
f 40/19/22 39/20/22 33/14/22
f 33/14/22 34/13/23 40/19/22
f 33/14/17 39/20/17 37/18/17
f 37/18/17 36/16/17 33/14/17
f 39/20/17 31/11/17 26/6/17
f 26/6/17 37/18/17 39/20/17
f 31/11/19 39/20/19 40/19/19
f 40/19/19 32/12/19 31/11/19
