# Blender 4.2.3 LTS
# www.blender.org
mtllib Roof_001.mtl
o Roof
v 12.086601 8.829403 -7.151723
v 14.432075 6.964585 -7.152433
v 9.741129 6.964585 -7.151013
v 9.983648 6.964585 6.626959
v 14.437658 6.964585 6.625612
v 12.086601 9.022237 -7.151723
v 12.210653 9.022237 6.626286
v 12.210653 8.825689 6.626286
v 10.000454 6.964584 -7.151093
v 14.186676 6.964585 6.625688
v 10.234629 6.964585 6.626883
v 14.172736 6.964585 -7.152353
v 12.086714 8.829403 -6.830678
v 14.172849 6.964585 -6.831312
v 10.000566 6.964584 -6.830043
v 10.234516 6.964585 6.305839
v 12.210541 8.825689 6.305237
v 14.186563 6.964585 6.304635
v 6.539225 5.238885 9.835562
v 17.881725 5.238885 9.831563
v 6.236408 5.238885 -10.356953
v 17.874754 5.238885 -10.361056
v -169.344009 -169.344025 169.343979
v -169.344009 169.344025 169.343979
v -169.344009 -169.344025 -169.343979
v -169.344009 169.344025 -169.343979
v 169.344009 -169.344025 169.343994
v 169.344009 169.344025 169.343994
v 169.344025 -169.344025 -169.343979
v 169.344025 169.344025 -169.343979
vn -0.0000 -1.0000 -0.0000
vn -0.0001 0.8806 -0.4739
vn -0.0002 0.8806 -0.4738
vn 0.4480 0.8940 -0.0002
vn 0.4481 0.8940 -0.0002
vn 0.0002 0.8806 0.4738
vn -0.6759 0.7369 0.0111
vn -0.6621 0.7493 0.0068
vn -0.6786 0.7344 0.0119
vn -0.4434 0.8963 0.0068
vn -0.4463 0.8948 0.0076
vn -0.4430 0.8965 0.0066
vn 0.6759 0.7369 -0.0053
vn 0.6622 0.7494 -0.0011
vn 0.6786 0.7345 -0.0061
vn 0.0003 -0.0000 1.0000
vn -0.0003 -0.0000 -1.0000
vn 0.6665 -0.7455 -0.0002
vn 0.6664 -0.7456 -0.0002
vn 0.6856 -0.7280 -0.0002
vn -0.6665 -0.7455 0.0002
vn -0.6856 -0.7280 0.0002
vn -0.0000 0.9995 -0.0305
vn 0.0001 0.8806 0.4739
vn 0.0001 0.8806 0.4738
vn -0.6595 0.7517 0.0059
vn -0.4475 0.8942 0.0079
vn 0.6595 0.7517 -0.0003
vt -2.126501 -0.346952
vt 4.976087 -4.440593
vt 4.976086 -0.450962
vt -1.205969 3.967035
vt -2.764755 3.967100
vt 0.117605 2.584321
vt -0.998312 1.128170
vt 4.976088 2.579581
vt -2.126499 2.579580
vt -2.571801 5.354612
vt -3.872027 3.971843
vt 0.117605 3.971842
vt 0.122346 2.584322
vt 4.976088 3.612369
vt 0.129162 3.579244
vt 3.865787 1.123429
vt -2.127262 -0.342212
vt 4.976088 -0.342212
vt 0.129623 3.617110
vt 4.976088 4.645182
vt 0.129703 4.612055
vt -2.828219 -3.540782
vt -2.131241 -4.440645
vt -2.821095 -3.429684
vt -2.210845 -2.259959
vt -2.314494 -3.424943
vt -2.131241 -2.185890
vt -3.511637 -2.264575
vt -3.617459 -2.185890
vt -2.367043 -3.327021
vt -2.392804 -2.398184
vt -2.432488 -3.128260
vt -3.335126 -4.268062
vt -2.865105 -3.768692
vt -3.109949 -2.427389
vt -2.234739 -4.407761
vt -2.416436 -4.308282
vt -3.733109 -4.426915
vt -2.126501 -4.440645
vt -1.114754 3.967032
vt -2.673535 3.967096
vt -3.976086 2.584320
vt 3.848003 1.128413
vt -1.093420 5.354551
vt -1.181701 5.354554
vt -2.660082 5.354616
vt 4.968843 2.584322
vt -0.981240 1.112861
vt 4.975936 3.617110
vt -3.861065 -4.440645
s 1
usemtl Roof2_Material
f 21/1/1 20/2/1 19/3/1
f 9/4/2 2/5/3 21/6/3
f 2/7/4 20/8/5 22/9/4
f 11/10/6 19/11/6 20/12/6
f 7/13/7 3/14/8 4/15/9
f 4/16/10 21/17/11 19/18/12
f 5/19/13 6/20/14 7/21/15
f 8/22/16 5/23/16 7/24/16
f 1/25/17 3/26/17 6/27/17
f 12/28/17 6/27/17 2/29/17
f 9/30/18 13/31/19 15/32/18
f 8/22/20 16/33/20 17/34/20
f 1/25/21 14/35/21 13/31/21
f 10/36/22 17/34/22 18/37/22
f 7/24/16 11/38/16 8/22/16
f 21/1/1 22/39/1 20/2/1
f 21/6/3 3/40/2 9/4/2
f 9/4/2 12/41/23 2/5/3
f 2/5/3 22/42/3 21/6/3
f 2/7/4 5/43/5 20/8/5
f 20/12/6 5/44/24 10/45/24
f 11/10/6 4/46/25 19/11/6
f 20/12/6 10/45/24 11/10/6
f 7/13/7 6/47/26 3/14/8
f 4/16/10 3/48/27 21/17/11
f 5/19/13 2/49/28 6/20/14
f 8/22/16 10/36/16 5/23/16
f 1/25/17 9/30/17 3/26/17
f 12/28/17 1/25/17 6/27/17
f 9/30/18 1/25/19 13/31/19
f 8/22/20 11/38/20 16/33/20
f 1/25/21 12/28/21 14/35/21
f 10/36/22 8/22/22 17/34/22
f 7/24/16 4/50/16 11/38/16
